# xmcd
#
# Track frame offsets:
#	150
#	17790
#	41466
#	62181
#	80853
#	97114
#	114343
#	136345
#	160291
#	181898
#	217989
#	233934
#	263409
#	277201
#	296182
#
# Disc length: 4258 seconds
# Revision: 0
# Processed by: cddbd v1.5.2PL0 Copyright (c) Steve Scherf et al.
# Submitted via: dBpowerAMP V12.0
#
DISCID=df10a00f
DTITLE=Michael Henderson - The Best of Michael Henderson
DYEAR=1998
DGENRE=Soul
TTITLE0=Valentine Love
TTITLE1=Be My Girl
TTITLE2=You Are My Ship
TTITLE3=You Haven't Made It to the Top
TTITLE4=I Can't Help It
TTITLE5=Take Me I'm Yours
TTITLE6=In the Night-Time
TTITLE7=Do It All
TTITLE8=To Be Loved
TTITLE9=Wide Receiver
TTITLE10=Reach Out for Me
TTITLE11=(We Are Here To) Geek You Up
TTITLE12=Make Me Feel Better
TTITLE13=Am I Special
TTITLE14=Let Me Love You
EXTD=
EXTT0=
EXTT1=
EXTT2=
EXTT3=
EXTT4=
EXTT5=
EXTT6=
EXTT7=
EXTT8=
EXTT9=
EXTT10=
EXTT11=
EXTT12=
EXTT13=
EXTT14=
PLAYORDER=
